<?xml version="1.0" encoding="UTF-8"?><svg id="Layer_2" xmlns="http://www.w3.org/2000/svg" xmlns:xlink="http://www.w3.org/1999/xlink" viewBox="0 0 3391.51 1274.64"><defs><style>.cls-1{fill:url(#linear-gradient);stroke-width:0px;}</style><linearGradient id="linear-gradient" x1="-8024.8" y1="4521.47" x2="10210.87" y2="4658.39" gradientTransform="translate(1546.73 1263.79) scale(.14 -.14)" gradientUnits="userSpaceOnUse"><stop offset="0" stop-color="#32ced6"/><stop offset=".51" stop-color="#b442d4"/><stop offset="1" stop-color="#f56e71"/></linearGradient></defs><g id="Layer_1-2"><path class="cls-1" d="m1859.39,288.3v931.62c0,30.09-24.62,54.72-54.71,54.72h0c-30.09,0-54.72-24.62-54.72-54.72v-173.96h-.29c0-104.77.29-209.55.29-314.31-.26-29.88-24.77-54.25-54.71-54.25h0c-28.14,0-51.51,21.54-54.42,48.94v319.61h-.3v173.96c0,30.09-24.62,54.72-54.72,54.72h0c-30.09,0-54.72-24.62-54.72-54.72v-173.96h0V164.16c0-90.29,73.87-164.16,164.16-164.16h0c90.29,0,164.15,73.88,164.15,164.16v124.15h0Zm1094.98,408.74c0,30.15-24.67,54.83-54.82,54.83h0c-30.16,0-54.83-24.67-54.83-54.83v-53.16c-.27-2.15-.41-4.34-.41-6.56h0c0-2.23.14-4.42.41-6.57v-53.17c0-30.15,24.67-54.83,54.83-54.83h0c30.15,0,54.82,24.67,54.82,54.83,0,148.57,0-29.12,0,119.45h0Zm-328.92,60.48c0,30.15,24.67,54.82,54.82,54.82h0c30.15,0,54.83-24.67,54.83-54.82v-240.41c0-30.15-24.67-54.83-54.83-54.83h0c-30.15,0-54.82,24.67-54.82,54.83v36.68c0,29.77-24.28,54.04-54.04,54.04h-1.34c-29.77,0-54.04-24.28-54.04-54.04v-205.58c0-30.1-24.63-54.72-54.72-54.72h0c-30.09,0-54.72,24.67-54.72,54.72v205.58c0,29.77-24.28,54.04-54.05,54.04h-1.33c-29.77,0-54.05-24.28-54.05-54.04v-138.92c0-30.1-24.62-54.72-54.72-54.72h0c-30.1,0-54.72,24.63-54.72,54.72,0,46.42-.41,92.81-.64,139.18-.15,29.68-24.37,53.78-54.05,53.78h-.64c-29.76,0-54.04-24.28-54.04-54.04,0-120.3-.06-240.61-.06-360.91,0-30.1-24.62-54.72-54.72-54.72h0c-30.09,0-54.72,24.63-54.72,54.72v888.85c0,30.09,24.62,54.72,54.72,54.72h0c30.09,0,54.72-24.63,54.72-54.72,0-120.3.05-240.61.06-360.91,0-29.76,24.28-54.05,54.04-54.05h.64c29.68,0,53.9,24.1,54.05,53.78.23,46.37.64,92.77.64,139.19,0,30.09,24.62,54.72,54.72,54.72h0c30.1,0,54.72-24.63,54.72-54.72v-138.92c0-29.77,24.28-54.05,54.05-54.05h1.33c29.77,0,54.05,24.28,54.05,54.05v205.58c0,30.08,24.62,54.72,54.72,54.72h0c30.09,0,54.72-24.63,54.72-54.72v-205.58c0-29.77,24.28-54.05,54.04-54.05h1.34c29.77,0,54.04,24.28,54.04,54.05v36.69Zm-2190.49-60.48c0,30.15,24.67,54.83,54.82,54.83h0c30.15,0,54.83-24.67,54.83-54.83v-119.45c0-30.15-24.67-54.83-54.83-54.83h0c-30.15,0-54.82,24.67-54.82,54.83v119.45-59.72h0s0,59.72,0,59.72Zm328.92,60.48c0,30.15-24.67,54.82-54.82,54.82h0c-30.16,0-54.83-24.67-54.83-54.82v-23.42c-.27-2.19-.41-4.42-.41-6.68v-180.2c0-2.26.14-4.49.41-6.68v-23.42c0-30.15,24.67-54.83,54.83-54.83h0c30.15,0,54.82,24.67,54.82,54.83v44.81c3.94,25.93,26.43,45.92,53.43,45.92h1.34c29.77,0,54.05-24.28,54.05-54.04v-205.58c0-30.09,24.62-54.72,54.72-54.72h0c30.09,0,54.72,24.67,54.72,54.72v205.58c0,29.77,24.28,54.04,54.05,54.04h3.09c29.77,0,54.05-24.28,54.05-54.04v-112.83c0-30.09,24.62-54.72,54.72-54.72h0c30.09,0,54.72,24.63,54.72,54.72v117.74c0,27.07,22.07,49.14,49.14,49.14h10.31c27.07,0,49.14-22.07,49.14-49.14v-.49c.55-3.12.85-6.32.85-9.59V192.88c0-30.09,24.63-54.72,54.72-54.72h0c30.1,0,54.72,24.63,54.72,54.72v888.85c0,30.1-24.63,54.72-54.72,54.72h0c-30.09,0-54.72-24.63-54.72-54.72v-355.75c0-3.27-.29-6.47-.85-9.58v-.48c0-27.07-22.07-49.14-49.14-49.14h-10.31c-27.07,0-49.14,22.07-49.14,49.14v117.74c0,30.09-24.62,54.72-54.72,54.72h0c-30.1,0-54.72-24.62-54.72-54.72v-112.83c0-29.77-24.28-54.05-54.05-54.05h-3.09c-29.77,0-54.05,24.28-54.05,54.05v205.58c0,30.08-24.63,54.72-54.72,54.72h0c-30.09,0-54.72-24.63-54.72-54.72v-205.58c0-29.77-24.28-54.05-54.05-54.05h-1.34c-27.01,0-49.5,19.98-53.43,45.92v44.8h0Zm-654.45-120.21h0c0,29.62-24.24,53.86-53.86,53.86h-1.72c-29.62,0-53.85-24.23-53.85-53.85h0c0-29.63,24.23-53.86,53.85-53.86h1.72c29.63,0,53.86,24.24,53.86,53.86Zm218.87,0h0c0,29.62-24.23,53.86-53.86,53.86h-1.73c-29.62,0-53.85-24.23-53.85-53.85h0c0-29.63,24.23-53.86,53.85-53.86h1.73c29.62,0,53.86,24.24,53.86,53.86Zm2844.33,0h0c0,29.62-24.24,53.86-53.86,53.86h-1.72c-29.62,0-53.85-24.23-53.85-53.85h0c0-29.63,24.24-53.86,53.85-53.86h1.72c29.62,0,53.86,24.24,53.86,53.86Zm218.87,0h0c0,29.62-24.23,53.86-53.86,53.86h-1.73c-29.62,0-53.85-24.23-53.85-53.85h0c0-29.63,24.24-53.86,53.85-53.86h1.73c29.62,0,53.86,24.24,53.86,53.86Zm-1750.68-76.92c2.91,27.4,26.27,48.95,54.42,48.95h0c29.94,0,54.46-24.37,54.71-54.25,0-130.3-.3-260.62-.3-390.93,0-29.93-24.5-54.41-54.41-54.41h0c-29.93,0-54.42,24.48-54.42,54.41v396.24Z"/></g></svg>