<svg width="194" height="30" viewBox="0 0 194 30" fill="none" xmlns="http://www.w3.org/2000/svg">
<path d="M1 14.2222V15.7778M4.09677 13.4444V16.5556M7.19355 11.8889V18.1111M10.2903 8.77778V21.2222M13.3871 5.66667V24.3333M16.4839 1V29M19.5806 7.22222V22.7778M22.6774 8V22M25.7742 10.3333V19.6667M28.871 12.6667V17.3333M31.9677 14.2222V15.7778M35.0645 14.2222V15.7778M38.1613 14.2222V15.7778M41.2581 14.2222V15.7778M44.3548 11.1111V18.8889M47.4516 7.22222V22.7778M50.5484 8.77778V21.2222M53.6452 5.66667V24.3333M56.7419 1V29M59.8387 3.33333V26.6667M62.9355 8V22M66.0323 10.3333V19.6667M69.129 12.6667V17.3333M72.2258 14.2222V15.7778M75.3226 14.2222V15.7778M78.4194 14.2222V15.7778M81.5161 14.2222V15.7778M84.6129 13.4444V16.5556M87.7097 11.8889V18.1111M90.8064 8.77778V21.2222M93.9032 5.66667V24.3333M97 1V29M100.097 7.22222V22.7778M103.194 7.22222V22.7778M106.29 3.33333V26.6667M109.387 1V29M112.484 7.22222V22.7778M115.581 11.8889V18.1111M118.677 11.8889V18.1111M121.774 11.8889V18.1111M124.871 11.1111V18.8889M127.968 7.22222V22.7778M131.065 1V29M134.161 3.33333V26.6667M137.258 1V29M140.355 3.33333V26.6667M143.452 1V29M146.548 7.22222V22.7778M149.645 11.8889V18.1111M152.742 14.2222V15.7778M155.839 14.2222V15.7778M158.935 11.1111V18.8889M162.032 7.22222V22.7778M165.129 11.1111V18.8889M168.226 3.33333V26.6667M171.323 1V29M174.419 3.33333V26.6667M177.516 1V29M180.613 7.22222V22.7778M183.71 7.22222V22.7778M186.806 11.1111V18.8889M189.903 12.6667V17.3333M193 14.2222V15.7778" stroke="url(#paint0_linear_18_1005)" stroke-width="1.5" stroke-linecap="round"/>
<defs>
<linearGradient id="paint0_linear_18_1005" x1="11.8387" y1="29" x2="193" y2="29" gradientUnits="userSpaceOnUse">
<stop stop-color="#00E9FF"/>
<stop offset="1" stop-color="#FF00D8"/>
</linearGradient>
</defs>
</svg>
